<?xml version="1.0" standalone="no"?>
<!DOCTYPE svg PUBLIC "-//W3C//DTD SVG 20010904//EN"
 "http://www.w3.org/TR/2001/REC-SVG-20010904/DTD/svg10.dtd">
<svg version="1.0" xmlns="http://www.w3.org/2000/svg"
 width="260.000000pt" height="260.000000pt" viewBox="0 0 260.000000 260.000000"
 preserveAspectRatio="xMidYMid meet">
<metadata>
Created by potrace 1.11, written by Peter Selinger 2001-2013
</metadata>
<g transform="translate(0.000000,260.000000) scale(0.100000,-0.100000)"
fill="#000000" stroke="none">
<path d="M1037 1904 c-1 -1 -31 -5 -67 -8 -36 -4 -83 -11 -105 -16 -22 -5 -56
-12 -75 -15 -163 -28 -357 -128 -460 -239 -36 -37 -95 -148 -105 -195 -29
-136 7 -268 97 -361 53 -54 96 -89 102 -83 3 4 6 1 6 -5 0 -7 7 -12 15 -12 8
0 15 -4 15 -10 0 -5 9 -10 20 -10 11 0 20 -4 20 -10 0 -5 9 -10 19 -10 11 0
22 -4 25 -8 3 -5 32 -17 65 -28 34 -10 61 -22 61 -26 0 -3 10 -4 22 0 11 3 19
1 16 -4 -4 -5 4 -9 15 -10 12 0 40 -4 62 -8 66 -12 80 -14 88 -15 5 -1 5 -7 1
-13 -6 -10 -3 -9 8 0 13 10 22 11 37 2 16 -8 21 -8 21 2 0 9 3 9 10 -2 5 -8
10 -10 10 -5 0 6 8 1 17 -10 9 -12 14 -14 11 -5 -5 12 2 15 33 12 22 -2 39 -9
39 -16 0 -6 4 -5 9 3 7 11 13 12 23 3 8 -6 19 -7 28 -2 8 5 21 5 32 -1 13 -7
18 -6 18 3 0 11 2 11 8 0 5 -7 16 -10 25 -6 11 4 17 1 17 -7 0 -9 3 -10 8 -4
10 14 105 15 114 1 5 -8 8 -7 8 2 0 6 4 12 10 12 5 0 7 -8 3 -17 -5 -16 -4
-16 9 1 9 12 21 16 34 12 10 -3 24 -6 29 -7 6 0 17 -6 25 -12 13 -10 13 -10 1
6 -15 19 -1 23 18 4 10 -10 11 -8 6 8 -6 19 -6 19 8 2 11 -14 16 -15 20 -5 4
10 8 10 16 -2 9 -13 11 -12 11 5 0 17 2 17 10 5 9 -13 10 -13 10 0 0 13 1 13
10 0 9 -13 10 -13 10 0 0 13 1 13 10 0 9 -13 10 -13 10 0 0 13 1 13 10 0 6
-10 10 -11 10 -2 0 16 37 16 43 0 3 -8 6 -6 6 5 1 9 6 17 12 17 5 0 8 -3 6 -7
-3 -5 6 -9 20 -10 18 -1 22 2 12 7 -7 5 -10 12 -6 16 3 4 13 2 20 -5 11 -9 17
-8 26 2 6 8 22 13 36 11 14 -1 25 3 25 9 0 6 7 2 15 -9 15 -19 15 -19 8 1 -6
18 -5 18 10 6 15 -12 17 -12 11 4 -6 15 -4 16 16 5 12 -7 20 -7 16 -2 -3 6 -2
13 4 17 5 3 10 0 10 -7 0 -8 5 -6 11 5 6 9 14 15 19 12 5 -3 12 -1 15 5 5 8
11 7 21 -1 12 -10 13 -8 8 7 -7 18 -6 18 16 -1 13 -11 20 -15 17 -8 -4 6 -4
13 0 16 5 2 2 2 -5 0 -7 -1 -10 2 -6 8 3 6 14 9 24 6 11 -3 21 2 24 10 4 9 14
13 26 10 11 -3 23 -1 26 4 3 5 9 7 13 5 4 -3 8 1 8 9 0 13 -4 12 -19 -2 -10
-9 -18 -13 -18 -8 0 11 32 34 48 35 8 0 10 -5 6 -12 -4 -7 5 -2 19 11 31 28
36 41 9 20 -10 -8 0 3 22 23 23 21 47 38 54 38 6 0 12 5 12 11 0 5 -5 7 -12 3
-7 -4 -8 -3 -4 5 6 9 11 9 21 1 12 -10 13 -7 10 12 -4 22 -4 22 11 3 13 -18
14 -17 8 14 -5 23 -4 32 3 28 10 -6 27 28 24 47 -1 5 5 6 14 3 8 -4 15 -2 15
3 0 6 -6 10 -12 10 -9 0 -9 3 -3 8 6 4 16 24 22 45 9 31 8 40 -6 59 -17 20
-25 21 -205 21 l-187 0 -52 -52 c-103 -104 -259 -154 -450 -147 -56 3 -115 7
-132 11 -52 11 -139 55 -163 83 -51 58 -71 128 -43 150 14 11 14 11 -1 6 -10
-3 -18 -3 -18 1 0 4 8 14 18 21 15 12 15 15 2 24 -10 6 -11 10 -2 10 6 0 12 7
12 15 0 8 6 12 14 9 8 -3 17 0 22 7 4 8 3 10 -4 5 -17 -10 -15 1 5 24 10 11
25 20 35 20 9 0 20 5 24 12 5 8 1 9 -12 4 -15 -6 -16 -5 -7 5 10 10 16 9 29
-2 10 -8 15 -9 11 -3 -9 15 13 32 36 29 9 -2 17 2 17 8 0 6 7 2 15 -9 15 -19
15 -19 8 0 -5 15 -3 18 10 13 9 -3 17 -3 17 2 0 4 42 7 93 6 74 -1 92 -4 90
-16 -2 -10 0 -10 9 2 9 13 17 15 40 7 15 -6 28 -15 28 -21 0 -7 5 -5 10 3 7
11 10 11 10 2 0 -7 4 -11 9 -7 5 3 25 -4 43 -15 18 -11 40 -23 48 -27 8 -3 40
-32 70 -64 51 -53 58 -57 98 -56 31 0 46 -5 57 -19 14 -18 15 -18 8 0 -5 17
-2 18 40 13 28 -4 47 -2 47 4 0 6 8 6 20 -1 11 -6 20 -8 20 -4 0 3 7 1 15 -6
13 -11 14 -10 9 5 -6 14 -4 16 7 9 21 -13 38 -14 45 -2 4 7 14 1 26 -13 13
-18 16 -19 12 -5 -6 17 -3 18 39 13 29 -4 47 -2 47 4 0 6 4 8 10 4 17 -10 59
7 66 27 5 16 7 229 5 411 -1 23 -8 44 -21 57 -19 19 -33 20 -264 20 -209 0
-247 -2 -260 -16 -9 -8 -17 -21 -18 -27 0 -7 -2 -16 -3 -22 -2 -5 -3 -15 -4
-22 -1 -8 -21 -3 -61 13 -146 59 -321 86 -543 83 -86 -2 -158 -4 -160 -5z"/>
<path d="M1266 1537 c3 -10 9 -15 12 -12 3 3 0 11 -7 18 -10 9 -11 8 -5 -6z"/>
<path d="M2195 1000 c3 -5 8 -10 11 -10 2 0 4 5 4 10 0 6 -5 10 -11 10 -5 0
-7 -4 -4 -10z"/>
<path d="M1955 860 c3 -5 8 -10 11 -10 2 0 4 5 4 10 0 6 -5 10 -11 10 -5 0 -7
-4 -4 -10z"/>
<path d="M1315 780 c3 -5 8 -10 11 -10 2 0 4 5 4 10 0 6 -5 10 -11 10 -5 0 -7
-4 -4 -10z"/>
</g>
</svg>
