<?xml version="1.0" standalone="no"?>
<!DOCTYPE svg PUBLIC "-//W3C//DTD SVG 20010904//EN"
 "http://www.w3.org/TR/2001/REC-SVG-20010904/DTD/svg10.dtd">
<svg version="1.2" baseProfile="tiny-ps" xmlns="http://www.w3.org/2000/svg"
 width="804.000000pt" height="804.000000pt" viewBox="0 0 804.000000 804.000000"
 preserveAspectRatio="xMidYMid meet">

 <title>Clark Alford Since 2019 Remote WordPress Webmaster</title>
 <desc>Logo for Web and Email Developer; Clark Alford.</desc>

<g transform="translate(0.000000,804.000000) scale(0.100000,-0.100000)"
fill="#000000" stroke="none">
<path d="M0 4020 l0 -4020 4020 0 4020 0 0 4020 0 4020 -4020 0 -4020 0 0
-4020z m4415 2442 c165 -28 239 -46 390 -97 488 -163 897 -459 1213 -880 403
-537 572 -1257 451 -1926 -144 -804 -702 -1510 -1449 -1833 -555 -240 -1157
-274 -1733 -100 -598 182 -1097 579 -1428 1139 -144 245 -257 569 -304 875
-26 165 -31 487 -11 650 89 724 469 1353 1070 1768 319 221 685 360 1096 417
155 21 545 14 705 -13z"/>
<path d="M3775 6454 c-1014 -107 -1862 -823 -2130 -1799 -67 -243 -80 -347
-80 -640 0 -271 9 -361 56 -565 193 -835 817 -1517 1635 -1786 269 -89 457
-118 759 -118 314 0 518 34 810 134 346 119 720 358 963 614 490 519 740 1209
683 1889 -29 348 -109 634 -261 932 -130 256 -271 446 -486 655 -370 358 -801
575 -1324 666 -92 16 -526 28 -625 18z m640 -103 c659 -113 1237 -497 1605
-1062 73 -113 185 -338 234 -470 130 -353 175 -788 120 -1159 -61 -410 -230
-801 -490 -1132 -86 -109 -326 -344 -436 -426 -663 -495 -1540 -613 -2302
-310 -666 263 -1165 796 -1391 1483 -138 419 -153 913 -39 1335 179 666 637
1225 1249 1526 261 128 514 201 825 238 19 2 141 3 270 1 182 -2 262 -8 355
-24z"/>
<path d="M3895 6324 c-485 -36 -898 -187 -1275 -468 -52 -39 -158 -134 -236
-211 -205 -203 -332 -379 -454 -630 -102 -207 -162 -395 -207 -640 -26 -143
-26 -574 0 -727 82 -488 303 -927 636 -1265 372 -377 805 -597 1341 -680 139
-21 482 -24 605 -5 307 49 519 113 746 228 812 407 1319 1253 1286 2144 -14
353 -84 641 -232 945 -119 246 -254 435 -450 630 -366 366 -814 589 -1329 660
-106 15 -347 25 -431 19z m411 -206 c2 -3 8 -69 14 -149 5 -79 13 -179 16
-221 l7 -78 -31 0 c-31 0 -42 17 -42 66 0 17 -8 23 -41 28 -47 8 -50 6 -65
-37 -9 -26 -16 -32 -40 -32 -20 0 -29 5 -28 16 1 9 30 107 65 218 l63 203 39
-5 c21 -3 40 -7 43 -9z m-906 -85 c-1 -10 -7 -47 -15 -83 -25 -115 -25 -115
75 -215 50 -49 90 -93 90 -98 0 -4 -10 -12 -22 -16 -20 -8 -33 1 -100 67 -43
42 -78 70 -78 62 0 -8 12 -50 26 -93 14 -43 24 -80 23 -82 -2 -2 -16 -6 -30
-10 -26 -6 -27 -5 -99 200 -44 122 -70 209 -64 215 5 4 18 10 29 12 16 2 24
-9 44 -66 28 -78 33 -75 52 32 10 58 17 76 33 82 31 13 36 12 36 -7z m1334
-16 c16 -12 15 -20 -25 -122 -79 -205 -90 -238 -82 -245 4 -4 30 -15 56 -25
41 -15 48 -22 43 -39 -3 -12 -6 -24 -6 -28 0 -13 -18 -9 -100 23 -44 17 -80
35 -80 42 0 26 154 407 165 407 6 0 19 -6 29 -13z m488 -247 c37 -25 68 -50
68 -56 0 -6 -8 -18 -18 -27 -17 -15 -21 -14 -62 13 -25 17 -49 30 -55 30 -11
0 -65 -81 -65 -96 0 -6 14 -18 30 -27 25 -15 28 -21 20 -37 -16 -29 -29 -33
-55 -16 -13 9 -30 16 -37 16 -7 0 -35 -34 -62 -75 -41 -64 -51 -73 -67 -65
-29 16 -32 29 -13 58 89 140 228 333 237 330 7 -2 42 -23 79 -48z m-2265 9
c22 -19 61 -83 69 -114 3 -14 27 -48 53 -74 25 -27 55 -65 66 -86 19 -36 19
-37 0 -51 -10 -8 -22 -14 -27 -14 -4 0 -26 27 -48 60 -22 33 -46 61 -53 61
-24 3 -42 -3 -56 -16 -12 -12 -8 -24 33 -86 46 -68 47 -73 30 -86 -10 -7 -23
-13 -29 -13 -12 0 -245 342 -245 359 0 10 71 62 100 74 23 10 89 1 107 -14z
m2631 -319 c39 -24 55 -62 49 -115 -5 -35 -17 -51 -89 -119 -114 -108 -154
-136 -195 -136 -46 0 -89 27 -108 66 -31 66 -13 103 105 209 136 122 170 136
238 95z m-2944 -121 c102 -62 186 -115 186 -118 0 -4 -7 -16 -15 -27 -13 -18
-15 -18 -45 -1 -41 22 -52 22 -77 -5 -33 -37 -33 -43 -8 -79 l25 -33 -20 -20
c-20 -20 -20 -20 -39 -1 -10 11 -73 92 -140 179 l-122 159 27 28 c15 16 31 29
35 29 4 0 91 -50 193 -111z m3241 -293 c55 -94 40 -158 -45 -201 -27 -14 -61
-25 -76 -25 -16 0 -34 -10 -46 -25 -11 -14 -51 -41 -89 -60 l-68 -35 -15 22
c-19 27 -15 32 61 72 49 26 58 36 61 61 5 60 -11 64 -88 23 -38 -21 -76 -38
-84 -38 -18 0 -32 38 -19 51 11 11 365 198 375 199 4 0 19 -20 33 -44z m-2765
-122 c74 -74 305 -302 513 -507 l378 -371 508 508 c501 501 534 531 549 487 3
-8 -205 -223 -507 -525 l-511 -511 383 -384 c577 -579 642 -648 627 -666 -7
-8 -17 -15 -23 -15 -6 0 -239 231 -518 513 l-507 512 -515 -514 c-303 -302
-520 -512 -528 -509 -44 15 -14 49 486 548 278 278 505 509 505 515 1 5 -229
237 -510 515 -399 394 -510 509 -505 523 4 9 15 17 24 17 9 0 77 -61 151 -136z
m982 80 c15 -8 39 -30 54 -49 71 -94 17 -238 -99 -265 -97 -21 -193 46 -204
143 -16 140 123 236 249 171z m-1828 -134 c84 -44 158 -80 164 -80 7 0 23 23
37 50 14 28 27 50 30 50 12 0 55 -24 53 -30 -19 -43 -85 -160 -90 -160 -9 0
-337 170 -368 191 -20 13 -21 18 -11 37 6 12 16 22 22 22 5 0 79 -36 163 -80z
m3812 -325 c33 -124 0 -163 -172 -205 -143 -36 -161 -36 -205 -7 -34 23 -64
86 -71 152 l-3 29 210 52 c116 28 214 48 218 44 5 -4 15 -33 23 -65z m-4024
50 c13 -14 -7 -57 -31 -66 -14 -6 -29 -16 -33 -22 -12 -19 -9 -54 6 -66 14
-12 236 -70 268 -71 41 0 64 64 33 90 -22 18 -20 70 3 70 24 0 69 -48 77 -82
17 -68 -40 -138 -112 -138 -58 1 -271 55 -301 77 -15 11 -33 38 -41 60 -13 36
-12 43 5 78 24 49 103 92 126 70z m932 -456 c14 -11 26 -27 26 -35 0 -19 -30
-18 -45 3 -14 19 -42 12 -52 -13 -4 -10 11 -33 44 -67 60 -62 67 -80 48 -116
-25 -49 -82 -56 -114 -15 -12 15 -21 31 -21 35 0 15 38 10 44 -6 10 -26 66
-12 66 17 0 5 -25 32 -55 62 -63 61 -70 92 -30 131 30 30 54 31 89 4z m116
-119 c0 -133 -1 -140 -20 -140 -19 0 -20 7 -20 140 0 133 1 140 20 140 19 0
20 -7 20 -140z m111 60 l28 -75 0 78 c1 70 3 77 21 77 19 0 20 -7 20 -140 0
-130 -1 -140 -19 -140 -14 0 -24 16 -41 63 -33 89 -40 91 -40 9 0 -65 -2 -72
-20 -72 -19 0 -20 7 -20 141 0 138 0 140 21 137 17 -2 28 -20 50 -78z m234 55
c14 -13 25 -29 25 -35 0 -15 -36 -12 -50 5 -19 22 -39 18 -50 -11 -13 -34 -13
-140 0 -165 13 -23 48 -25 56 -4 7 18 44 20 44 3 0 -23 -43 -58 -72 -58 -55 0
-68 28 -68 144 0 101 1 105 26 125 35 27 59 26 89 -4z m183 3 c3 -14 -4 -18
-31 -18 -37 0 -47 -12 -47 -55 0 -18 6 -24 27 -27 39 -4 43 -36 6 -40 -24 -3
-28 -8 -31 -40 l-3 -38 40 0 c34 0 41 -3 41 -20 0 -18 -7 -20 -55 -20 l-55 0
0 141 0 140 52 -3 c41 -2 54 -7 56 -20z m1026 1 c43 -34 36 -78 -24 -144 -27
-30 -50 -59 -50 -65 0 -5 21 -10 47 -12 36 -2 49 -7 51 -20 3 -16 -5 -18 -67
-18 l-71 0 0 35 c0 28 10 46 50 90 52 57 64 97 34 109 -9 4 -24 0 -34 -9 -19
-17 -50 -20 -50 -5 0 18 48 60 68 60 11 0 31 -9 46 -21z m191 -4 c23 -22 25
-31 25 -121 0 -87 -2 -100 -22 -121 -27 -29 -71 -30 -98 -3 -17 17 -20 33 -20
124 0 101 1 105 26 125 35 27 59 26 89 -4z m105 -115 c0 -133 -1 -140 -20
-140 -19 0 -20 7 -20 133 0 74 3 137 7 140 3 4 12 7 20 7 10 0 13 -30 13 -140z
m164 119 c25 -20 26 -24 26 -124 0 -94 -2 -106 -22 -125 -12 -11 -33 -20 -47
-20 -27 0 -71 35 -71 57 0 18 37 16 44 -3 10 -27 51 -13 54 19 3 24 0 27 -27
27 -47 0 -71 30 -71 90 0 41 5 56 25 75 30 30 54 31 89 4z m-1007 -865 c68
-52 88 -121 58 -199 -46 -121 -212 -143 -292 -39 -30 40 -40 107 -23 158 12
38 78 102 114 110 44 9 109 -4 143 -30z m-1881 -181 c9 -33 -5 -55 -42 -68
-16 -5 -40 -18 -54 -27 -13 -10 -30 -18 -37 -18 -22 0 -14 20 12 32 14 6 25
18 25 26 0 14 -13 14 -59 1 -7 -2 -15 1 -17 6 -3 11 120 73 148 74 11 1 20 -9
24 -26z m3639 3 c11 -7 37 -19 58 -25 21 -7 37 -19 37 -28 0 -11 -5 -13 -17
-8 -10 4 -28 10 -40 12 -35 8 -29 -22 7 -37 30 -13 40 -30 17 -30 -19 0 -157
68 -157 77 0 5 7 19 16 31 17 25 50 29 79 8z m-3560 -157 c19 -37 9 -54 -12
-22 -12 18 -19 21 -34 12 -10 -5 -19 -19 -19 -29 0 -22 -10 -26 -26 -10 -7 7
-16 6 -28 -3 -15 -11 -16 -17 -7 -35 8 -15 8 -23 0 -27 -6 -4 -11 -5 -13 -4
-25 38 -36 62 -31 67 9 10 139 82 147 82 4 0 15 -14 23 -31z m3433 -1 c-3 -28
1 -34 20 -36 12 -2 22 2 22 8 0 6 5 8 10 5 6 -4 9 -13 8 -22 -2 -8 5 -20 15
-27 15 -9 21 -7 31 7 12 16 36 24 36 12 0 -10 -30 -65 -36 -65 -5 0 -146 79
-152 85 -6 6 29 65 38 65 6 0 9 -15 8 -32z m-3358 -119 c0 -6 -11 -24 -25 -41
-35 -41 -31 -51 11 -33 42 17 64 19 64 6 0 -12 -123 -101 -139 -101 -18 0 -13
16 12 34 22 16 22 17 0 11 -26 -7 -39 10 -23 30 8 10 9 15 2 15 -6 0 -14 -4
-17 -10 -8 -13 -35 -13 -35 0 0 10 128 100 142 100 5 0 8 -5 8 -11z m3276 -7
c-5 -14 9 -28 54 -61 33 -23 58 -47 54 -52 -6 -10 -30 2 -92 48 -21 16 -39 22
-52 18 -24 -8 -25 -1 -3 36 19 32 48 40 39 11z m-91 -143 c4 -6 -2 -13 -14
-16 -12 -3 -21 -13 -21 -25 0 -18 5 -19 54 -13 51 7 55 5 71 -18 23 -35 6 -67
-35 -67 -37 0 -38 7 -4 20 41 16 23 35 -36 38 -62 4 -80 14 -80 48 0 33 50 59
65 33z m-3054 -19 c26 -14 24 -54 -3 -81 -63 -59 -88 -72 -113 -61 -18 9 -25
19 -25 41 0 23 10 38 51 70 56 44 61 46 90 31z m149 -166 c0 -10 -6 -13 -18
-10 -12 4 -33 -9 -67 -44 -27 -28 -53 -50 -57 -50 -18 0 -5 21 42 73 30 33 46
58 40 62 -6 3 -8 11 -4 16 8 13 64 -29 64 -47z m2820 -4 c58 -40 79 -67 41
-55 -22 7 -44 -16 -35 -38 3 -8 2 -17 -3 -20 -5 -3 -27 22 -49 56 -55 83 -56
85 -49 98 9 14 24 7 95 -41z m-131 -127 c30 -37 47 -65 40 -68 -6 -4 -19 1
-29 10 -17 15 -18 15 -16 -2 1 -13 -5 -17 -23 -15 -24 2 -24 2 -6 -18 13 -14
15 -24 8 -31 -7 -7 -28 12 -66 60 -62 76 -61 99 4 57 42 -28 48 -22 23 25 -8
17 -13 38 -9 47 6 18 4 19 74 -65z m-2580 43 c23 -24 17 -42 -9 -25 -8 5 -20
9 -26 9 -17 0 -26 -30 -14 -45 14 -16 2 -26 -25 -19 -29 7 -42 -22 -20 -46 26
-28 0 -33 -31 -7 l-28 24 55 66 c30 36 59 66 65 66 6 1 21 -10 33 -23z m2385
-134 c8 -15 23 -36 35 -46 29 -26 27 -70 -4 -90 -27 -18 -30 -15 -99 89 l-27
40 22 18 c31 25 56 21 73 -11z m-2164 -66 c-17 -46 -11 -52 19 -17 37 44 55
35 36 -19 -16 -45 -4 -53 21 -15 14 22 44 35 44 19 0 -3 -24 -34 -52 -70 -54
-66 -86 -83 -74 -41 20 72 19 74 -13 37 -45 -50 -55 -30 -26 57 28 87 34 98
47 85 5 -5 5 -19 -2 -36z m2000 4 c0 -5 -7 -13 -16 -18 -21 -12 -9 -54 14 -51
32 3 35 -1 19 -19 -14 -16 -15 -21 -4 -36 11 -15 18 -16 34 -8 19 11 33 7 33
-8 0 -11 -57 -33 -68 -26 -6 3 -27 36 -47 73 l-37 67 22 18 c24 19 50 24 50 8z
m-126 -159 c20 -88 10 -112 -26 -57 -29 45 -39 46 -27 4 23 -83 -3 -77 -63 14
-52 80 -53 112 -2 52 l33 -39 -9 40 c-13 53 -12 55 5 55 8 0 15 -3 15 -7 0 -5
10 -19 21 -33 l21 -25 -6 41 c-6 42 2 65 15 42 4 -7 14 -46 23 -87z m-1612 62
c24 -21 22 -37 -10 -103 -20 -40 -33 -56 -50 -58 -53 -8 -66 40 -31 111 37 73
55 83 91 50z m156 -59 c25 -18 28 -50 7 -80 -8 -12 -12 -23 -10 -26 8 -8 -16
-68 -26 -68 -6 0 -9 16 -7 36 4 46 -16 55 -30 14 -6 -16 -16 -30 -21 -30 -14
0 -14 8 5 66 36 114 40 118 82 88z m183 -52 c21 -18 22 -22 11 -77 -7 -32 -17
-64 -23 -71 -13 -16 -75 -19 -83 -5 -3 5 2 45 11 90 15 71 20 81 39 81 12 0
32 -8 45 -18z m870 8 c28 -15 23 -31 -8 -28 -40 4 -42 -26 -3 -42 39 -16 64
-52 55 -79 -8 -26 -50 -38 -70 -21 -24 20 -17 30 15 24 45 -9 39 20 -10 51
-32 20 -40 31 -40 55 0 17 7 33 18 39 21 13 20 13 43 1z m-693 -42 c15 -13 16
-60 0 -76 -7 -7 -22 -12 -35 -12 -19 0 -23 -5 -23 -29 0 -27 -15 -49 -26 -39
-5 6 15 159 23 171 5 9 41 0 61 -15z m529 -3 c8 -22 -4 -30 -21 -16 -8 7 -20
10 -26 6 -19 -12 -10 -33 24 -55 40 -24 52 -50 36 -80 -13 -24 -68 -28 -77 -5
-8 22 4 30 21 16 8 -7 20 -10 26 -6 20 12 10 36 -25 56 -39 23 -51 49 -35 79
13 24 68 28 77 5z m-363 -8 c9 -7 17 -21 16 -32 0 -11 0 -44 0 -73 0 -67 -13
-91 -20 -37 -6 50 -33 56 -38 8 -2 -22 -9 -33 -19 -33 -10 0 -13 6 -9 16 3 9
6 49 6 90 0 71 1 74 23 74 13 0 31 -6 41 -13z m186 -2 c0 -9 -9 -15 -25 -15
-20 0 -25 -5 -25 -25 0 -18 5 -25 20 -25 11 0 20 -5 20 -11 0 -6 -9 -13 -20
-16 -11 -3 -20 -9 -20 -13 0 -24 15 -40 36 -40 13 0 24 -4 24 -10 0 -5 -13
-10 -30 -10 -16 0 -33 -1 -37 -2 -8 -3 -23 162 -16 175 2 4 20 7 39 7 24 0 34
-5 34 -15z"/>
<path d="M4248 5984 c-14 -21 -47 -137 -42 -146 6 -10 52 -11 56 0 8 14 -7
157 -14 146z"/>
<path d="M2863 5728 c-30 -15 -29 -31 7 -84 34 -49 48 -53 75 -24 22 24 15 56
-19 93 -28 30 -31 31 -63 15z"/>
<path d="M5510 5412 c-13 -4 -98 -77 -182 -155 -34 -32 -36 -70 -6 -91 12 -9
28 -16 34 -16 18 0 212 177 219 200 12 38 -26 74 -65 62z"/>
<path d="M2551 5285 c18 -25 41 -52 51 -62 17 -15 19 -15 38 2 11 10 20 21 20
24 0 7 -122 81 -134 81 -4 0 7 -20 25 -45z"/>
<path d="M5770 4979 c-30 -18 -57 -33 -59 -35 -2 -2 4 -15 13 -29 23 -36 69
-34 107 5 29 28 29 30 14 60 -8 16 -17 30 -18 30 -1 0 -27 -14 -57 -31z"/>
<path d="M3947 4989 c-107 -57 -103 -220 7 -270 54 -25 84 -24 136 4 105 55
107 205 4 264 -48 28 -97 28 -147 2z"/>
<path d="M5855 4503 c-77 -20 -141 -37 -143 -38 -10 -8 15 -69 33 -81 20 -13
34 -12 131 12 131 32 154 44 154 83 0 38 -9 61 -24 60 -6 0 -74 -17 -151 -36z"/>
<path d="M4784 4107 c-3 -8 -4 -54 -2 -103 3 -88 3 -89 28 -89 25 0 25 2 28
88 3 90 -5 117 -35 117 -7 0 -16 -6 -19 -13z"/>
<path d="M5061 4106 c-7 -8 -11 -32 -9 -53 3 -33 6 -38 28 -38 22 0 25 5 28
44 2 28 -1 47 -10 52 -18 12 -24 11 -37 -5z"/>
<path d="M3950 3272 c-101 -50 -108 -204 -12 -264 102 -63 232 11 232 132 0
112 -118 183 -220 132z"/>
<path d="M2175 3076 c-19 -14 -19 -15 -2 -21 22 -9 50 2 45 17 -6 18 -22 20
-43 4z"/>
<path d="M5820 3075 c0 -8 9 -19 19 -25 27 -14 40 9 16 27 -24 17 -35 17 -35
-2z"/>
<path d="M2440 2592 c-41 -36 -48 -62 -17 -62 21 1 101 76 93 88 -12 20 -32
13 -76 -26z"/>
<path d="M5451 2460 c9 -14 19 -24 23 -22 14 5 10 15 -14 31 l-25 16 16 -25z"/>
<path d="M5114 2245 c3 -9 6 -19 6 -21 0 -2 7 -4 16 -4 22 0 13 34 -10 38 -14
3 -17 0 -12 -13z"/>
<path d="M5150 2192 c0 -5 6 -17 14 -28 12 -15 17 -16 27 -7 10 10 9 15 -1 28
-13 16 -40 21 -40 7z"/>
<path d="M3193 2038 c-12 -29 -19 -56 -16 -60 11 -20 36 -4 53 35 25 54 25 77
1 77 -13 0 -24 -15 -38 -52z"/>
<path d="M3381 2009 c-14 -39 9 -56 28 -20 8 14 7 22 -4 31 -12 10 -16 8 -24
-11z"/>
<path d="M3551 1958 c-17 -46 -22 -96 -10 -103 20 -13 39 19 41 69 3 54 -16
75 -31 34z"/>
<path d="M3737 1943 c-4 -3 -7 -17 -7 -30 0 -27 25 -31 32 -5 8 31 -7 53 -25
35z"/>
<path d="M3906 1915 c-10 -27 -7 -35 15 -35 15 0 20 5 17 22 -4 27 -23 35 -32
13z"/>
</g>
</svg>
